# xmcd CD database file
#
# Track frame offsets:
#	150
#	9247
#	25050
#	42440
#	62512
#	78112
#	103772
#	120157
#	149935
#	165527
#	174805
#	194940
#	205555
#	216285
#	227417
#
# Disc length: 3202 seconds
#
# Revision: 0
# Processed by: cddbd v1.5PL3 Copyright (c) Steve Scherf et al.
# Submitted via: CDex 1.50beta10
#
DISCID=c00c800f
DTITLE=Caledonia Blues band - Chicken Jump
DYEAR=1995
DGENRE=Blues
TTITLE0=Just your fool
TTITLE1=Roll 'em hawk
TTITLE2=Mary jo
TTITLE3=Feelin' god
TTITLE4=Ain't got
TTITLE5=Blues got after me
TTITLE6=Mind to go back home
TTITLE7=Done somebody wrong - Dust my broom
TTITLE8=Constantly rockin' man
TTITLE9=Chicken jump
TTITLE10=Country town
TTITLE11=My lemon song
TTITLE12=Why my baby
TTITLE13=Whisky washy woman
TTITLE14=Seven years on the road
EXTD=YEAR: 1995
EXTT0=
EXTT1=
EXTT2=
EXTT3=
EXTT4=
EXTT5=
EXTT6=
EXTT7=
EXTT8=
EXTT9=
EXTT10=
EXTT11=
EXTT12=
EXTT13=
EXTT14=
PLAYORDER=
